<?xml version="1.0" standalone="no"?>
<!DOCTYPE svg PUBLIC "-//W3C//DTD SVG 20010904//EN"
 "http://www.w3.org/TR/2001/REC-SVG-20010904/DTD/svg10.dtd">
<svg version="1.0" xmlns="http://www.w3.org/2000/svg"
 width="128.000000pt" height="128.000000pt" viewBox="0 0 128.000000 128.000000"
 preserveAspectRatio="xMidYMid meet">
<metadata>
Created by potrace 1.11, written by Peter Selinger 2001-2013
</metadata>
<g transform="translate(0.000000,128.000000) scale(0.100000,-0.100000)"
fill="#000000" stroke="none">
<path d="M627 1214 c-1 -1 -29 -4 -63 -7 -156 -15 -325 -126 -412 -271 -48
-79 -79 -185 -81 -281 -2 -109 12 -176 58 -270 112 -227 360 -354 611 -314 90
15 232 85 296 147 67 66 122 150 152 236 20 57 25 91 26 176 1 120 -11 175
-62 274 -69 133 -190 236 -330 280 -62 19 -185 39 -195 30z m185 -111 c185
-68 314 -243 323 -439 14 -293 -228 -535 -519 -517 -352 20 -569 391 -415 708
56 117 159 208 287 252 57 20 82 23 167 20 69 -2 118 -10 157 -24z"/>
<path d="M571 1078 c-165 -25 -314 -161 -357 -328 -93 -366 279 -673 621 -511
162 77 258 237 251 420 -11 264 -249 458 -515 419z"/>
</g>
</svg>
