<svg version="1.0" xmlns="http://www.w3.org/2000/svg" width="170.667" height="170.667" viewBox="0 0 128 128"><path d="M62.7 6.6c-.1.1-2.9.4-6.3.7-15.6 1.5-32.5 12.6-41.2 27.1-4.8 7.9-7.9 18.5-8.1 28.1-.2 10.9 1.2 17.6 5.8 27 11.2 22.7 36 35.4 61.1 31.4 9-1.5 23.2-8.5 29.6-14.7 6.7-6.6 12.2-15 15.2-23.6 2-5.7 2.5-9.1 2.6-17.6.1-12-1.1-17.5-6.2-27.4-6.9-13.3-19-23.6-33-28-6.2-1.9-18.5-3.9-19.5-3zm18.5 11.1c18.5 6.8 31.4 24.3 32.3 43.9 1.4 29.3-22.8 53.5-51.9 51.7-35.2-2-56.9-39.1-41.5-70.8C25.7 30.8 36 21.7 48.8 17.3c5.7-2 8.2-2.3 16.7-2 6.9.2 11.8 1 15.7 2.4z"/><path d="M57.1 20.2C40.6 22.7 25.7 36.3 21.4 53c-9.3 36.6 27.9 67.3 62.1 51.1 16.2-7.7 25.8-23.7 25.1-42-1.1-26.4-24.9-45.8-51.5-41.9z"/></svg>