<?xml version="1.0" encoding="utf-8"?><svg xmlns="http://www.w3.org/2000/svg" xmlns:xlink="http://www.w3.org/1999/xlink"><symbol viewBox="0 0 42 40" id="badge" xmlns="http://www.w3.org/2000/svg"><path d="M38.552 25.795c-.645 1.985.235 4.766-.97 6.418-1.219 1.669-4.15 1.687-5.823 2.902-1.657 1.202-2.574 3.985-4.564 4.63-1.92.622-4.292-1.072-6.421-1.072-2.129 0-4.5 1.694-6.421 1.072-1.991-.645-2.907-3.428-4.564-4.631-1.674-1.215-4.604-1.232-5.822-2.901-1.207-1.653-.327-4.434-.972-6.419-.624-1.917-2.996-3.64-2.996-5.763 0-2.124 2.371-3.848 2.995-5.763.646-1.986-.234-4.766.972-6.418 1.218-1.67 4.148-1.687 5.821-2.903C11.445 3.744 12.361.962 14.352.318c1.92-.622 4.293 1.071 6.421 1.071 2.129 0 4.501-1.693 6.421-1.071 1.991.644 2.907 3.426 4.564 4.629 1.673 1.216 4.605 1.233 5.823 2.903 1.206 1.652.326 4.432.971 6.418.624 1.916 2.995 3.639 2.997 5.763 0 2.123-2.372 3.848-2.997 5.764zM20.773 5.49c-8.038 0-14.577 6.523-14.577 14.541 0 8.019 6.539 14.541 14.577 14.541S35.35 28.05 35.35 20.031c0-8.018-6.539-14.541-14.577-14.541zm0 26.708c-6.726 0-12.197-5.458-12.197-12.167S14.047 7.865 20.773 7.865c6.726 0 12.197 5.457 12.197 12.166 0 6.709-5.471 12.167-12.197 12.167zm8.353-14.388a.737.737 0 0 0-.652-.506l-5.119-.33-1.898-4.754a.735.735 0 0 0-1.367 0l-1.897 4.754-5.119.33a.736.736 0 0 0-.652.506.73.73 0 0 0 .229.791l3.947 3.27-1.267 4.958a.733.733 0 0 0 .28.775.742.742 0 0 0 .826.027l4.336-2.734 4.337 2.734a.736.736 0 1 0 1.106-.802l-1.267-4.958 3.947-3.27a.735.735 0 0 0 .23-.791z"/></symbol><symbol viewBox="0 0 29 40" id="leaf" xmlns="http://www.w3.org/2000/svg"><path d="M24.214.398s-3.253 3.129-6.77 4.391C-8.602 14.133 2.383 32.341 2.741 32.401c0 0 1.461-2.522 3.434-3.961C18.694 19.312 21.239 8.804 21.239 8.804S18.43 21.448 7.291 29.315c-2.46 1.737-4.125 6.013-4.83 10.286 0 0 1.743-.698 2.493-.887.293-1.893.904-3.705 1.938-5.324 15.567 1.838 20.665-10.602 21.331-14.941C29.794 8.204 24.214.398 24.214.398z"/></symbol><symbol viewBox="0 0 22 16" id="photo-camera" xmlns="http://www.w3.org/2000/svg"><path d="M19.081 15.994H2.919a2.915 2.915 0 0 1-2.91-2.913V4.576a2.913 2.913 0 0 1 2.653-2.901c.13-.556.492-.935.924-.935h2.097c.43 0 .789.374.921.922H9.57l1.437-1.66h4.911l1.769 1.66h1.394a2.914 2.914 0 0 1 2.908 2.914v8.505a2.914 2.914 0 0 1-2.908 2.913zM2.641 6.513a.55.55 0 0 0-1.1 0v5.807a.55.55 0 0 0 1.1 0V6.513zm3.308-3.042a.58.58 0 0 0-.58-.581H3.878c-.32 0-.581.26-.581.581v.342c0 .32.261.58.581.58h1.491c.319 0 .58-.26.58-.58v-.342zm7.792.779a4.658 4.658 0 0 0-4.65 4.655 4.658 4.658 0 0 0 4.65 4.655 4.657 4.657 0 0 0 4.648-4.655 4.657 4.657 0 0 0-4.648-4.655zm0 7.918a3.265 3.265 0 0 1-3.259-3.263 3.264 3.264 0 0 1 3.259-3.262 3.263 3.263 0 0 1 0 6.525z"/></symbol><symbol viewBox="0 0 41 40" id="settings-work-tool" xmlns="http://www.w3.org/2000/svg"><path d="M35.223 15.061l-.194-.07-.754-1.807.082-.185c2.286-5.201 2.128-5.356 1.749-5.733l-3.048-2.985a.815.815 0 0 0-.533-.211c-.171 0-.69 0-5.192 2.046l-.181.081-1.856-.75-.075-.186c-2.117-5.26-2.334-5.26-2.86-5.26h-4.305c-.525 0-.764 0-2.727 5.27l-.074.192-1.847.756-.177-.074c-3.047-1.29-4.826-1.944-5.29-1.944a.815.815 0 0 0-.533.209L4.357 7.403c-.387.383-.547.543 1.858 5.636l.088.189-.756 1.805-.185.072C-.002 17.186-.002 17.388-.002 17.93v4.233c0 .543 0 .769 5.375 2.703l.192.068.756 1.8-.081.184c-2.285 5.203-2.14 5.343-1.751 5.732l3.043 2.989a.839.839 0 0 0 .537.211c.17 0 .688 0 5.193-2.046l.18-.085 1.859.755.072.187c2.118 5.259 2.336 5.259 2.863 5.259h4.306c.541 0 .764 0 2.729-5.274l.074-.192 1.849-.751.177.072c3.045 1.293 4.822 1.945 5.283 1.945a.813.813 0 0 0 .536-.208l3.056-2.999c.384-.385.544-.543-1.865-5.63l-.09-.191.754-1.798.181-.07c5.373-2.092 5.373-2.296 5.373-2.839v-4.23c0-.544 0-.768-5.376-2.694zM20.298 26.826c-3.846 0-6.976-3.081-6.976-6.866 0-3.783 3.13-6.86 6.976-6.86 3.845 0 6.975 3.077 6.975 6.86 0 3.784-3.13 6.866-6.975 6.866z"/></symbol></svg>